<svg width="137" height="24" viewBox="0 0 137 24" fill="none" xmlns="http://www.w3.org/2000/svg">
<g clip-path="url(#clip0_4_6)">
<path fill-rule="evenodd" clip-rule="evenodd" d="M4.02663 12L1.33333 10.416L3.31846 6.91739L6.01333 8.4987L6.01487 5.33333H9.98513L9.98667 8.4987L12.6815 6.91739L14.6667 10.416L11.9733 12L14.6667 13.584L12.6815 17.0826L9.98667 15.5013L9.98513 18.6667H6.01487L6.01333 15.5013L3.31846 17.0826L1.33333 13.584L4.02663 12Z" fill="#171412"/>
</g>
<path d="M43.502 3.225V16.5H40.703V10.128L41.963 10.974H34.637L35.897 10.164V16.5H33.098V3.225H35.897V9.642L34.637 8.805H41.963L40.703 9.642V3.225H43.502ZM46.7635 12.558V10.713H53.0995L52.8295 11.181C52.8295 11.133 52.8295 11.088 52.8295 11.046C52.8295 10.998 52.8295 10.953 52.8295 10.911C52.8295 10.569 52.7485 10.242 52.5865 9.93C52.4245 9.612 52.1725 9.354 51.8305 9.156C51.4945 8.952 51.0625 8.85 50.5345 8.85C50.0065 8.85 49.5505 8.964 49.1665 9.192C48.7885 9.414 48.4975 9.735 48.2935 10.155C48.0955 10.575 47.9965 11.082 47.9965 11.676C47.9965 12.288 48.0925 12.813 48.2845 13.251C48.4825 13.683 48.7735 14.016 49.1575 14.25C49.5475 14.484 50.0305 14.601 50.6065 14.601C50.9785 14.601 51.2995 14.568 51.5695 14.502C51.8395 14.43 52.0585 14.34 52.2265 14.232C52.4005 14.124 52.5325 14.004 52.6225 13.872C52.7125 13.74 52.7665 13.611 52.7845 13.485H55.5385C55.5025 13.887 55.3645 14.283 55.1245 14.673C54.8845 15.057 54.5515 15.405 54.1255 15.717C53.6995 16.023 53.1805 16.266 52.5685 16.446C51.9625 16.626 51.2695 16.716 50.4895 16.716C49.4335 16.716 48.5125 16.506 47.7265 16.086C46.9405 15.66 46.3315 15.075 45.8995 14.331C45.4675 13.581 45.2515 12.717 45.2515 11.739C45.2515 10.749 45.4705 9.882 45.9085 9.138C46.3525 8.388 46.9675 7.806 47.7535 7.392C48.5455 6.972 49.4605 6.762 50.4985 6.762C51.5605 6.762 52.4785 6.975 53.2525 7.401C54.0265 7.821 54.6235 8.412 55.0435 9.174C55.4635 9.93 55.6735 10.812 55.6735 11.82C55.6735 11.97 55.6705 12.114 55.6645 12.252C55.6585 12.39 55.6495 12.492 55.6375 12.558H46.7635ZM60.6571 16.698C59.9611 16.698 59.3401 16.587 58.7941 16.365C58.2541 16.143 57.8311 15.822 57.5251 15.402C57.2191 14.982 57.0661 14.472 57.0661 13.872C57.0661 13.194 57.2521 12.642 57.6241 12.216C57.9961 11.79 58.4881 11.466 59.1001 11.244C59.7181 11.016 60.3871 10.866 61.1071 10.794C62.1571 10.692 62.8801 10.599 63.2761 10.515C63.6781 10.431 63.8791 10.284 63.8791 10.074C63.8791 10.068 63.8791 10.062 63.8791 10.056C63.8791 9.702 63.7081 9.423 63.3661 9.219C63.0301 9.015 62.5591 8.913 61.9531 8.913C61.3111 8.913 60.8191 9.03 60.4771 9.264C60.1411 9.492 59.9731 9.843 59.9731 10.317H57.2281C57.2281 9.549 57.4351 8.901 57.8491 8.373C58.2691 7.845 58.8361 7.446 59.5501 7.176C60.2641 6.9 61.0711 6.762 61.9711 6.762C62.8111 6.762 63.5881 6.891 64.3021 7.149C65.0161 7.401 65.5891 7.782 66.0211 8.292C66.4591 8.802 66.6781 9.45 66.6781 10.236C66.6781 10.362 66.6781 10.488 66.6781 10.614C66.6781 10.734 66.6781 10.857 66.6781 10.983V14.367C66.6781 14.613 66.6841 14.85 66.6961 15.078C66.7141 15.3 66.7501 15.504 66.8041 15.69C66.8641 15.9 66.9391 16.074 67.0291 16.212C67.1191 16.35 67.1941 16.446 67.2541 16.5H64.5091C64.4671 16.458 64.4011 16.371 64.3111 16.239C64.2271 16.107 64.1551 15.954 64.0951 15.78C64.0231 15.57 63.9691 15.36 63.9331 15.15C63.9031 14.934 63.8881 14.682 63.8881 14.394L64.4641 14.79C64.2961 15.186 64.0231 15.528 63.6451 15.816C63.2731 16.098 62.8291 16.317 62.3131 16.473C61.8031 16.623 61.2511 16.698 60.6571 16.698ZM61.4041 14.61C61.8421 14.61 62.2501 14.532 62.6281 14.376C63.0121 14.214 63.3241 13.962 63.5641 13.62C63.8041 13.278 63.9241 12.831 63.9241 12.279V11.316L64.6171 11.991C64.2211 12.135 63.7621 12.255 63.2401 12.351C62.7241 12.441 62.2081 12.513 61.6921 12.567C61.0801 12.627 60.6211 12.732 60.3151 12.882C60.0151 13.026 59.8651 13.272 59.8651 13.62C59.8651 13.95 59.9941 14.199 60.2521 14.367C60.5101 14.529 60.8941 14.61 61.4041 14.61ZM71.6089 2.433V16.5H68.8549V2.433H71.6089ZM78.5331 16.698C78.1671 16.698 77.7891 16.665 77.3991 16.599C77.0151 16.539 76.6551 16.416 76.3191 16.23C75.9891 16.038 75.7221 15.759 75.5181 15.393C75.3141 15.027 75.2121 14.544 75.2121 13.944C75.2121 13.812 75.2121 13.677 75.2121 13.539C75.2121 13.401 75.2121 13.263 75.2121 13.125V9.102H73.0071V6.942H73.6281C73.9881 6.942 74.2731 6.927 74.4831 6.897C74.6991 6.867 74.8581 6.792 74.9601 6.672C75.0681 6.546 75.1371 6.351 75.1671 6.087C75.1971 5.823 75.2121 5.46 75.2121 4.998V3.792H78.0111V6.942H80.7921V9.102H78.0111V12.54C78.0111 12.648 78.0111 12.753 78.0111 12.855C78.0111 12.957 78.0111 13.056 78.0111 13.152C78.0111 13.566 78.0591 13.902 78.1551 14.16C78.2571 14.418 78.5061 14.547 78.9021 14.547C79.1001 14.547 79.2861 14.529 79.4601 14.493C79.6401 14.457 79.7751 14.421 79.8651 14.385V16.482C79.7391 16.536 79.5621 16.584 79.3341 16.626C79.1061 16.674 78.8391 16.698 78.5331 16.698ZM89.2155 16.5V13.098C89.2155 12.978 89.2155 12.813 89.2155 12.603C89.2155 12.393 89.2155 12.18 89.2155 11.964C89.2155 11.748 89.2155 11.574 89.2155 11.442C89.2155 10.71 89.0835 10.146 88.8195 9.75C88.5555 9.348 88.0725 9.147 87.3705 9.147C86.9145 9.147 86.5305 9.24 86.2185 9.426C85.9065 9.606 85.6695 9.861 85.5075 10.191C85.3515 10.521 85.2735 10.908 85.2735 11.352L84.4635 10.794C84.4635 9.996 84.6345 9.297 84.9765 8.697C85.3185 8.091 85.7895 7.617 86.3895 7.275C86.9955 6.933 87.6945 6.762 88.4865 6.762C89.6565 6.762 90.5355 7.107 91.1235 7.797C91.7115 8.481 92.0055 9.435 92.0055 10.659C92.0055 10.971 92.0055 11.346 92.0055 11.784C92.0055 12.222 92.0055 12.729 92.0055 13.305V16.5H89.2155ZM82.4835 16.5V2.433H85.2735V16.5H82.4835ZM94.5783 20.631C94.2783 20.631 94.0083 20.619 93.7683 20.595C93.5343 20.577 93.3873 20.556 93.3273 20.532V18.417C93.4053 18.453 93.5403 18.48 93.7323 18.498C93.9303 18.522 94.1403 18.534 94.3623 18.534C94.6563 18.534 94.9203 18.474 95.1543 18.354C95.3943 18.24 95.5983 18.075 95.7663 17.859C95.9403 17.649 96.0753 17.4 96.1713 17.112L96.3333 16.626L93.0393 6.942H95.9463L98.0253 14.781H97.7013L99.6993 6.942H102.57L99.2853 16.977C99.0393 17.733 98.7363 18.384 98.3763 18.93C98.0163 19.476 97.5363 19.896 96.9363 20.19C96.3363 20.484 95.5503 20.631 94.5783 20.631ZM103.903 16.5V3.225H106.702V15.663L105.442 14.223H111.643V16.5H103.903ZM113.278 16.5V6.942H116.041V16.5H113.278ZM114.655 5.385C114.223 5.385 113.845 5.271 113.521 5.043C113.203 4.815 113.044 4.494 113.044 4.08C113.044 3.66 113.203 3.336 113.521 3.108C113.845 2.88 114.223 2.766 114.655 2.766C115.093 2.766 115.471 2.88 115.789 3.108C116.113 3.336 116.275 3.66 116.275 4.08C116.275 4.5 116.113 4.824 115.789 5.052C115.471 5.274 115.093 5.385 114.655 5.385ZM119.258 16.5V9.102H117.269V6.942H119.258V6.285C119.258 5.649 119.342 5.106 119.51 4.656C119.684 4.2 119.918 3.822 120.212 3.522C120.506 3.216 120.836 2.976 121.202 2.802C121.574 2.622 121.955 2.496 122.345 2.424C122.741 2.346 123.125 2.307 123.497 2.307C123.893 2.307 124.187 2.331 124.379 2.379C124.577 2.421 124.709 2.457 124.775 2.487V4.656C124.703 4.632 124.574 4.605 124.388 4.575C124.208 4.545 124.013 4.53 123.803 4.53C123.455 4.53 123.167 4.575 122.939 4.665C122.711 4.755 122.531 4.887 122.399 5.061C122.267 5.229 122.174 5.43 122.12 5.664C122.066 5.892 122.039 6.141 122.039 6.411V6.942H124.604V9.102H122.039V16.5H119.258ZM126.726 12.558V10.713H133.062L132.792 11.181C132.792 11.133 132.792 11.088 132.792 11.046C132.792 10.998 132.792 10.953 132.792 10.911C132.792 10.569 132.711 10.242 132.549 9.93C132.387 9.612 132.135 9.354 131.793 9.156C131.457 8.952 131.025 8.85 130.497 8.85C129.969 8.85 129.513 8.964 129.129 9.192C128.751 9.414 128.46 9.735 128.256 10.155C128.058 10.575 127.959 11.082 127.959 11.676C127.959 12.288 128.055 12.813 128.247 13.251C128.445 13.683 128.736 14.016 129.12 14.25C129.51 14.484 129.993 14.601 130.569 14.601C130.941 14.601 131.262 14.568 131.532 14.502C131.802 14.43 132.021 14.34 132.189 14.232C132.363 14.124 132.495 14.004 132.585 13.872C132.675 13.74 132.729 13.611 132.747 13.485H135.501C135.465 13.887 135.327 14.283 135.087 14.673C134.847 15.057 134.514 15.405 134.088 15.717C133.662 16.023 133.143 16.266 132.531 16.446C131.925 16.626 131.232 16.716 130.452 16.716C129.396 16.716 128.475 16.506 127.689 16.086C126.903 15.66 126.294 15.075 125.862 14.331C125.43 13.581 125.214 12.717 125.214 11.739C125.214 10.749 125.433 9.882 125.871 9.138C126.315 8.388 126.93 7.806 127.716 7.392C128.508 6.972 129.423 6.762 130.461 6.762C131.523 6.762 132.441 6.975 133.215 7.401C133.989 7.821 134.586 8.412 135.006 9.174C135.426 9.93 135.636 10.812 135.636 11.82C135.636 11.97 135.633 12.114 135.627 12.252C135.621 12.39 135.612 12.492 135.6 12.558H126.726Z" fill="#171412"/>
<defs>
<clipPath id="clip0_4_6">
<rect width="16" height="16" fill="white" transform="translate(0 4)"/>
</clipPath>
</defs>
</svg>
